<svg width="314" height="164" viewBox="0 0 314 164" fill="none" xmlns="http://www.w3.org/2000/svg">
<g filter="url(#filter0_d)">
<path opacity="0.75" d="M9.7 1.392H5.8V4.488H9.52V5.28H5.8V9H4.96V0.599999H9.7V1.392ZM16.0438 8.244C15.4358 8.844 14.6918 9.144 13.8118 9.144C12.9318 9.144 12.1838 8.844 11.5678 8.244C10.9598 7.636 10.6558 6.888 10.6558 6C10.6558 5.112 10.9598 4.368 11.5678 3.768C12.1838 3.16 12.9318 2.856 13.8118 2.856C14.6918 2.856 15.4358 3.16 16.0438 3.768C16.6598 4.368 16.9678 5.112 16.9678 6C16.9678 6.888 16.6598 7.636 16.0438 8.244ZM12.1318 7.692C12.5878 8.148 13.1478 8.376 13.8118 8.376C14.4758 8.376 15.0358 8.148 15.4918 7.692C15.9478 7.228 16.1758 6.664 16.1758 6C16.1758 5.336 15.9478 4.776 15.4918 4.32C15.0358 3.856 14.4758 3.624 13.8118 3.624C13.1478 3.624 12.5878 3.856 12.1318 4.32C11.6758 4.776 11.4478 5.336 11.4478 6C11.4478 6.664 11.6758 7.228 12.1318 7.692ZM19.0851 3.996C19.4531 3.268 20.0851 2.904 20.9811 2.904V3.672C20.4371 3.672 19.9851 3.832 19.6251 4.152C19.2651 4.472 19.0851 4.976 19.0851 5.664V9H18.2931V3H19.0851V3.996ZM27.1873 7.584C26.9633 8.016 26.6393 8.372 26.2153 8.652C25.7993 8.924 25.3313 9.084 24.8113 9.132V9.54C25.1553 9.604 25.4273 9.72 25.6273 9.888C25.8273 10.056 25.9273 10.264 25.9273 10.512C25.9273 11.328 25.1073 11.688 23.4673 11.592V10.944C24.6433 11.04 25.2313 10.896 25.2313 10.512C25.2313 10.208 24.8593 10.044 24.1153 10.02V9.12C23.3073 9.032 22.6433 8.696 22.1233 8.112C21.6033 7.528 21.3433 6.824 21.3433 6C21.3433 5.112 21.6433 4.368 22.2433 3.768C22.8433 3.16 23.5953 2.856 24.4993 2.856C25.0913 2.856 25.6233 3 26.0953 3.288C26.5673 3.568 26.9113 3.948 27.1273 4.428L26.4793 4.8C26.3193 4.44 26.0593 4.156 25.6993 3.948C25.3473 3.732 24.9473 3.624 24.4993 3.624C23.8353 3.624 23.2753 3.856 22.8193 4.32C22.3633 4.776 22.1353 5.336 22.1353 6C22.1353 6.664 22.3633 7.228 22.8193 7.692C23.2753 8.148 23.8353 8.376 24.4993 8.376C24.9473 8.376 25.3473 8.272 25.6993 8.064C26.0513 7.848 26.3273 7.56 26.5273 7.2L27.1873 7.584ZM33.4258 3H34.2178V9H33.4258V7.824C32.8738 8.704 32.0658 9.144 31.0018 9.144C30.1458 9.144 29.4138 8.84 28.8058 8.232C28.2058 7.624 27.9058 6.88 27.9058 6C27.9058 5.12 28.2058 4.376 28.8058 3.768C29.4138 3.16 30.1458 2.856 31.0018 2.856C32.0658 2.856 32.8738 3.296 33.4258 4.176V3ZM29.3818 7.692C29.8378 8.148 30.3978 8.376 31.0618 8.376C31.7258 8.376 32.2858 8.148 32.7418 7.692C33.1978 7.228 33.4258 6.664 33.4258 6C33.4258 5.336 33.1978 4.776 32.7418 4.32C32.2858 3.856 31.7258 3.624 31.0618 3.624C30.3978 3.624 29.8378 3.856 29.3818 4.32C28.9258 4.776 28.6978 5.336 28.6978 6C28.6978 6.664 28.9258 7.228 29.3818 7.692Z" fill="white"/>
<rect x="94" y="2" width="1" height="8" fill="white"/>
<rect x="99" y="2" width="1" height="8" fill="white"/>
<rect x="104" y="2" width="1" height="8" fill="white"/>
<rect x="109" y="2" width="1" height="8" fill="white"/>
<rect x="114" y="2" width="1" height="8" fill="white"/>
<rect x="119" y="2" width="1" height="8" fill="white"/>
<rect x="124" y="2" width="1" height="8" fill="white"/>
<rect x="129" y="2" width="1" height="8" fill="white"/>
<rect x="134" y="2" width="1" height="8" fill="white"/>
<rect x="139" y="2" width="1" height="8" fill="white"/>
<rect x="144" y="2" width="1" height="8" fill="white"/>
<rect x="149" y="2" width="1" height="8" fill="white"/>
<rect x="154" y="2" width="1" height="8" fill="white"/>
<rect x="159" y="2" width="1" height="8" fill="white"/>
<rect x="164" y="2" width="1" height="8" fill="white"/>
<rect x="169" y="2" width="1" height="8" fill="white"/>
<rect x="174" y="2" width="1" height="8" fill="white"/>
<rect x="179" y="2" width="1" height="8" fill="white"/>
<rect x="184" y="2" width="1" height="8" fill="white"/>
<rect x="189" y="2" width="1" height="8" fill="white"/>
<rect x="194" y="2" width="1" height="8" fill="white"/>
<rect x="199" y="2" width="1" height="8" fill="white"/>
<rect x="204" y="2" width="1" height="8" fill="white"/>
<rect x="209" y="2" width="1" height="8" fill="white"/>
<rect x="214" y="2" width="1" height="8" fill="white"/>
<rect x="219" y="2" width="1" height="8" fill="white"/>
<rect x="224" y="2" width="1" height="8" fill="white"/>
<rect x="229" y="2" width="1" height="8" fill="white"/>
<rect x="234" y="2" width="1" height="8" fill="white"/>
<rect x="239" y="2" width="1" height="8" fill="white"/>
<rect x="244" y="2" width="1" height="8" fill="white"/>
<rect x="249" width="1" height="12" fill="white"/>
<rect opacity="0.25" x="254" y="2" width="1" height="8" fill="white"/>
<rect opacity="0.25" x="259" y="2" width="1" height="8" fill="white"/>
<rect opacity="0.25" x="264" y="2" width="1" height="8" fill="white"/>
<rect opacity="0.25" x="269" y="2" width="1" height="8" fill="white"/>
<rect opacity="0.25" x="274" y="2" width="1" height="8" fill="white"/>
<rect opacity="0.25" x="279" y="2" width="1" height="8" fill="white"/>
<rect opacity="0.25" x="284" y="2" width="1" height="8" fill="white"/>
<rect opacity="0.25" x="289" y="2" width="1" height="8" fill="white"/>
<rect opacity="0.25" x="294" y="2" width="1" height="8" fill="white"/>
<rect opacity="0.25" x="299" y="2" width="1" height="8" fill="white"/>
<rect opacity="0.25" x="304" y="2" width="1" height="8" fill="white"/>
<rect opacity="0.25" x="309" y="2" width="1" height="8" fill="white"/>
<path opacity="0.75" d="M4.96 36.6H5.8V45H4.96V36.6ZM10.4136 38.856C11.1416 38.856 11.7136 39.08 12.1296 39.528C12.5536 39.968 12.7656 40.564 12.7656 41.316V45H11.9736V41.316C11.9736 40.78 11.8296 40.364 11.5416 40.068C11.2616 39.772 10.8616 39.624 10.3416 39.624C9.76563 39.624 9.29763 39.808 8.93763 40.176C8.57763 40.536 8.39763 41.096 8.39763 41.856V45H7.60563V39H8.39763V39.936C8.84563 39.216 9.51763 38.856 10.4136 38.856ZM17.477 39.768H15.749V43.404C15.749 43.732 15.813 43.968 15.941 44.112C16.069 44.248 16.261 44.32 16.517 44.328C16.773 44.328 17.093 44.32 17.477 44.304V45C16.637 45.128 16.005 45.068 15.581 44.82C15.165 44.572 14.957 44.1 14.957 43.404V39.768H13.697V39H14.957V37.56L15.749 37.32V39H17.477V39.768ZM21.2058 38.856C22.0938 38.856 22.8098 39.172 23.3538 39.804C23.9058 40.428 24.1818 41.168 24.1818 42.024C24.1818 42.112 24.1738 42.236 24.1578 42.396H18.8898C18.9698 43.004 19.2258 43.488 19.6578 43.848C20.0978 44.2 20.6378 44.376 21.2778 44.376C21.7338 44.376 22.1258 44.284 22.4538 44.1C22.7898 43.908 23.0418 43.66 23.2098 43.356L23.9058 43.764C23.6418 44.188 23.2818 44.524 22.8258 44.772C22.3698 45.02 21.8498 45.144 21.2658 45.144C20.3218 45.144 19.5538 44.848 18.9618 44.256C18.3698 43.664 18.0738 42.912 18.0738 42C18.0738 41.104 18.3658 40.356 18.9498 39.756C19.5338 39.156 20.2858 38.856 21.2058 38.856ZM21.2058 39.624C20.5818 39.624 20.0578 39.812 19.6338 40.188C19.2178 40.556 18.9698 41.036 18.8898 41.628H23.3658C23.2858 40.996 23.0418 40.504 22.6338 40.152C22.2258 39.8 21.7498 39.624 21.2058 39.624ZM25.4416 45V36.24H26.2336V45H25.4416ZM28.7182 37.56C28.6062 37.672 28.4702 37.728 28.3102 37.728C28.1502 37.728 28.0142 37.672 27.9022 37.56C27.7902 37.448 27.7342 37.312 27.7342 37.152C27.7342 36.992 27.7902 36.856 27.9022 36.744C28.0142 36.632 28.1502 36.576 28.3102 36.576C28.4702 36.576 28.6062 36.632 28.7182 36.744C28.8302 36.856 28.8862 36.992 28.8862 37.152C28.8862 37.312 28.8302 37.448 28.7182 37.56ZM27.9142 45V39H28.7062V45H27.9142ZM35.5469 39H36.3389V44.76C36.3389 45.624 36.0429 46.304 35.4509 46.8C34.8589 47.296 34.1509 47.544 33.3269 47.544C31.9189 47.544 30.9709 47.056 30.4829 46.08L31.1789 45.684C31.5389 46.412 32.2549 46.776 33.3269 46.776C34.0149 46.776 34.5549 46.592 34.9469 46.224C35.3469 45.864 35.5469 45.376 35.5469 44.76V43.824C34.9949 44.704 34.1869 45.144 33.1229 45.144C32.2669 45.144 31.5349 44.84 30.9269 44.232C30.3269 43.624 30.0269 42.88 30.0269 42C30.0269 41.12 30.3269 40.376 30.9269 39.768C31.5349 39.16 32.2669 38.856 33.1229 38.856C34.1869 38.856 34.9949 39.296 35.5469 40.176V39ZM31.5029 43.692C31.9589 44.148 32.5189 44.376 33.1829 44.376C33.8469 44.376 34.4069 44.148 34.8629 43.692C35.3189 43.228 35.5469 42.664 35.5469 42C35.5469 41.336 35.3189 40.776 34.8629 40.32C34.4069 39.856 33.8469 39.624 33.1829 39.624C32.5189 39.624 31.9589 39.856 31.5029 40.32C31.0469 40.776 30.8189 41.336 30.8189 42C30.8189 42.664 31.0469 43.228 31.5029 43.692ZM40.7158 37.116L39.8758 38.16H38.9758L40.2478 36.6H41.1838L42.4558 38.16H41.5558L40.7158 37.116ZM40.7878 38.856C41.6758 38.856 42.3918 39.172 42.9358 39.804C43.4878 40.428 43.7638 41.168 43.7638 42.024C43.7638 42.112 43.7558 42.236 43.7398 42.396H38.4718C38.5518 43.004 38.8078 43.488 39.2398 43.848C39.6798 44.2 40.2198 44.376 40.8598 44.376C41.3158 44.376 41.7078 44.284 42.0358 44.1C42.3718 43.908 42.6238 43.66 42.7918 43.356L43.4878 43.764C43.2238 44.188 42.8638 44.524 42.4078 44.772C41.9518 45.02 41.4318 45.144 40.8478 45.144C39.9038 45.144 39.1358 44.848 38.5438 44.256C37.9518 43.664 37.6558 42.912 37.6558 42C37.6558 41.104 37.9478 40.356 38.5318 39.756C39.1158 39.156 39.8678 38.856 40.7878 38.856ZM40.7878 39.624C40.1638 39.624 39.6398 39.812 39.2158 40.188C38.7998 40.556 38.5518 41.036 38.4718 41.628H42.9478C42.8678 40.996 42.6238 40.504 42.2158 40.152C41.8078 39.8 41.3318 39.624 40.7878 39.624ZM47.8316 38.856C48.5596 38.856 49.1316 39.08 49.5476 39.528C49.9716 39.968 50.1836 40.564 50.1836 41.316V45H49.3916V41.316C49.3916 40.78 49.2476 40.364 48.9596 40.068C48.6796 39.772 48.2796 39.624 47.7596 39.624C47.1836 39.624 46.7156 39.808 46.3556 40.176C45.9956 40.536 45.8156 41.096 45.8156 41.856V45H45.0236V39H45.8156V39.936C46.2636 39.216 46.9356 38.856 47.8316 38.856ZM54.511 45.144C53.607 45.144 52.855 44.844 52.255 44.244C51.655 43.636 51.355 42.888 51.355 42C51.355 41.112 51.655 40.368 52.255 39.768C52.855 39.16 53.607 38.856 54.511 38.856C55.103 38.856 55.635 39 56.107 39.288C56.579 39.568 56.923 39.948 57.139 40.428L56.491 40.8C56.331 40.44 56.071 40.156 55.711 39.948C55.359 39.732 54.959 39.624 54.511 39.624C53.847 39.624 53.287 39.856 52.831 40.32C52.375 40.776 52.147 41.336 52.147 42C52.147 42.664 52.375 43.228 52.831 43.692C53.287 44.148 53.847 44.376 54.511 44.376C54.959 44.376 55.359 44.272 55.711 44.064C56.063 43.848 56.339 43.56 56.539 43.2L57.199 43.584C56.951 44.064 56.587 44.444 56.107 44.724C55.627 45.004 55.095 45.144 54.511 45.144ZM59.1401 37.56C59.0281 37.672 58.8921 37.728 58.7321 37.728C58.5721 37.728 58.4361 37.672 58.3241 37.56C58.2121 37.448 58.1561 37.312 58.1561 37.152C58.1561 36.992 58.2121 36.856 58.3241 36.744C58.4361 36.632 58.5721 36.576 58.7321 36.576C58.8921 36.576 59.0281 36.632 59.1401 36.744C59.2521 36.856 59.3081 36.992 59.3081 37.152C59.3081 37.312 59.2521 37.448 59.1401 37.56ZM58.3361 45V39H59.1281V45H58.3361ZM65.9688 39H66.7608V45H65.9688V43.824C65.4168 44.704 64.6088 45.144 63.5448 45.144C62.6888 45.144 61.9568 44.84 61.3488 44.232C60.7488 43.624 60.4488 42.88 60.4488 42C60.4488 41.12 60.7488 40.376 61.3488 39.768C61.9568 39.16 62.6888 38.856 63.5448 38.856C64.6088 38.856 65.4168 39.296 65.9688 40.176V39ZM61.9248 43.692C62.3808 44.148 62.9408 44.376 63.6048 44.376C64.2688 44.376 64.8288 44.148 65.2848 43.692C65.7408 43.228 65.9688 42.664 65.9688 42C65.9688 41.336 65.7408 40.776 65.2848 40.32C64.8288 39.856 64.2688 39.624 63.6048 39.624C62.9408 39.624 62.3808 39.856 61.9248 40.32C61.4688 40.776 61.2408 41.336 61.2408 42C61.2408 42.664 61.4688 43.228 61.9248 43.692Z" fill="white"/>
<rect x="94" y="38" width="1" height="8" fill="white"/>
<rect x="99" y="38" width="1" height="8" fill="white"/>
<rect x="104" y="38" width="1" height="8" fill="white"/>
<rect x="109" y="38" width="1" height="8" fill="white"/>
<rect x="114" y="38" width="1" height="8" fill="white"/>
<rect x="119" y="38" width="1" height="8" fill="white"/>
<rect x="124" y="38" width="1" height="8" fill="white"/>
<rect x="129" y="38" width="1" height="8" fill="white"/>
<rect x="134" y="38" width="1" height="8" fill="white"/>
<rect x="139" y="38" width="1" height="8" fill="white"/>
<rect x="144" y="38" width="1" height="8" fill="white"/>
<rect x="149" y="38" width="1" height="8" fill="white"/>
<rect x="154" y="38" width="1" height="8" fill="white"/>
<rect x="159" y="38" width="1" height="8" fill="white"/>
<rect x="164" y="38" width="1" height="8" fill="white"/>
<rect x="169" y="38" width="1" height="8" fill="white"/>
<rect x="174" y="38" width="1" height="8" fill="white"/>
<rect x="179" y="38" width="1" height="8" fill="white"/>
<rect x="184" y="38" width="1" height="8" fill="white"/>
<rect x="189" y="38" width="1" height="8" fill="white"/>
<rect x="194" y="38" width="1" height="8" fill="white"/>
<rect x="199" y="38" width="1" height="8" fill="white"/>
<rect x="204" y="38" width="1" height="8" fill="white"/>
<rect x="209" y="38" width="1" height="8" fill="white"/>
<rect x="214" y="38" width="1" height="8" fill="white"/>
<rect x="219" y="38" width="1" height="8" fill="white"/>
<rect x="224" y="38" width="1" height="8" fill="white"/>
<rect x="229" y="38" width="1" height="8" fill="white"/>
<rect x="234" y="36" width="1" height="12" fill="white"/>
<rect opacity="0.25" x="239" y="38" width="1" height="8" fill="white"/>
<rect opacity="0.25" x="244" y="38" width="1" height="8" fill="white"/>
<rect opacity="0.25" x="249" y="38" width="1" height="8" fill="white"/>
<rect opacity="0.25" x="254" y="38" width="1" height="8" fill="white"/>
<rect opacity="0.25" x="259" y="38" width="1" height="8" fill="white"/>
<rect opacity="0.25" x="264" y="38" width="1" height="8" fill="white"/>
<rect opacity="0.25" x="269" y="38" width="1" height="8" fill="white"/>
<rect opacity="0.25" x="274" y="38" width="1" height="8" fill="white"/>
<rect opacity="0.25" x="279" y="38" width="1" height="8" fill="white"/>
<rect opacity="0.25" x="284" y="38" width="1" height="8" fill="white"/>
<rect opacity="0.25" x="289" y="38" width="1" height="8" fill="white"/>
<rect opacity="0.25" x="294" y="38" width="1" height="8" fill="white"/>
<rect opacity="0.25" x="299" y="38" width="1" height="8" fill="white"/>
<rect opacity="0.25" x="304" y="38" width="1" height="8" fill="white"/>
<rect opacity="0.25" x="309" y="38" width="1" height="8" fill="white"/>
<path opacity="0.75" d="M10.552 81L9.772 78.936H5.788L5.008 81H4.12L7.348 72.6H8.212L11.44 81H10.552ZM6.088 78.144H9.472L7.78 73.644L6.088 78.144ZM17.4414 75H18.2334V80.76C18.2334 81.624 17.9374 82.304 17.3454 82.8C16.7534 83.296 16.0454 83.544 15.2214 83.544C13.8134 83.544 12.8654 83.056 12.3774 82.08L13.0734 81.684C13.4334 82.412 14.1494 82.776 15.2214 82.776C15.9094 82.776 16.4494 82.592 16.8414 82.224C17.2414 81.864 17.4414 81.376 17.4414 80.76V79.824C16.8894 80.704 16.0814 81.144 15.0174 81.144C14.1614 81.144 13.4294 80.84 12.8214 80.232C12.2214 79.624 11.9214 78.88 11.9214 78C11.9214 77.12 12.2214 76.376 12.8214 75.768C13.4294 75.16 14.1614 74.856 15.0174 74.856C16.0814 74.856 16.8894 75.296 17.4414 76.176V75ZM13.3974 79.692C13.8534 80.148 14.4134 80.376 15.0774 80.376C15.7414 80.376 16.3014 80.148 16.7574 79.692C17.2134 79.228 17.4414 78.664 17.4414 78C17.4414 77.336 17.2134 76.776 16.7574 76.32C16.3014 75.856 15.7414 75.624 15.0774 75.624C14.4134 75.624 13.8534 75.856 13.3974 76.32C12.9414 76.776 12.7134 77.336 12.7134 78C12.7134 78.664 12.9414 79.228 13.3974 79.692ZM20.7143 73.56C20.6023 73.672 20.4663 73.728 20.3063 73.728C20.1463 73.728 20.0103 73.672 19.8983 73.56C19.7863 73.448 19.7303 73.312 19.7303 73.152C19.7303 72.992 19.7863 72.856 19.8983 72.744C20.0103 72.632 20.1463 72.576 20.3063 72.576C20.4663 72.576 20.6023 72.632 20.7143 72.744C20.8263 72.856 20.8823 72.992 20.8823 73.152C20.8823 73.312 20.8263 73.448 20.7143 73.56ZM19.9103 81V75H20.7023V81H19.9103ZM22.383 81V72.24H23.175V81H22.383ZM25.6596 73.56C25.5476 73.672 25.4116 73.728 25.2516 73.728C25.0916 73.728 24.9556 73.672 24.8436 73.56C24.7316 73.448 24.6756 73.312 24.6756 73.152C24.6756 72.992 24.7316 72.856 24.8436 72.744C24.9556 72.632 25.0916 72.576 25.2516 72.576C25.4116 72.576 25.5476 72.632 25.6596 72.744C25.7716 72.856 25.8276 72.992 25.8276 73.152C25.8276 73.312 25.7716 73.448 25.6596 73.56ZM24.8556 81V75H25.6476V81H24.8556ZM32.4883 72.6H33.2803V81H32.4883V79.824C31.9363 80.704 31.1283 81.144 30.0643 81.144C29.2083 81.144 28.4763 80.84 27.8683 80.232C27.2683 79.624 26.9683 78.88 26.9683 78C26.9683 77.12 27.2683 76.376 27.8683 75.768C28.4763 75.16 29.2083 74.856 30.0643 74.856C31.1283 74.856 31.9363 75.296 32.4883 76.176V72.6ZM28.4443 79.692C28.9003 80.148 29.4603 80.376 30.1243 80.376C30.7883 80.376 31.3483 80.148 31.8043 79.692C32.2603 79.228 32.4883 78.664 32.4883 78C32.4883 77.336 32.2603 76.776 31.8043 76.32C31.3483 75.856 30.7883 75.624 30.1243 75.624C29.4603 75.624 28.9003 75.856 28.4443 76.32C27.9883 76.776 27.7603 77.336 27.7603 78C27.7603 78.664 27.9883 79.228 28.4443 79.692ZM40.1172 75H40.9092V81H40.1172V79.824C39.5652 80.704 38.7572 81.144 37.6932 81.144C36.8372 81.144 36.1052 80.84 35.4972 80.232C34.8972 79.624 34.5972 78.88 34.5972 78C34.5972 77.12 34.8972 76.376 35.4972 75.768C36.1052 75.16 36.8372 74.856 37.6932 74.856C38.7572 74.856 39.5652 75.296 40.1172 76.176V75ZM36.0732 79.692C36.5292 80.148 37.0892 80.376 37.7532 80.376C38.4172 80.376 38.9772 80.148 39.4332 79.692C39.8892 79.228 40.1172 78.664 40.1172 78C40.1172 77.336 39.8892 76.776 39.4332 76.32C38.9772 75.856 38.4172 75.624 37.7532 75.624C37.0892 75.624 36.5292 75.856 36.0732 76.32C35.6172 76.776 35.3892 77.336 35.3892 78C35.3892 78.664 35.6172 79.228 36.0732 79.692ZM47.7461 72.6H48.5381V81H47.7461V79.824C47.1941 80.704 46.3861 81.144 45.3221 81.144C44.4661 81.144 43.7341 80.84 43.1261 80.232C42.5261 79.624 42.2261 78.88 42.2261 78C42.2261 77.12 42.5261 76.376 43.1261 75.768C43.7341 75.16 44.4661 74.856 45.3221 74.856C46.3861 74.856 47.1941 75.296 47.7461 76.176V72.6ZM43.7021 79.692C44.1581 80.148 44.7181 80.376 45.3821 80.376C46.0461 80.376 46.6061 80.148 47.0621 79.692C47.5181 79.228 47.7461 78.664 47.7461 78C47.7461 77.336 47.5181 76.776 47.0621 76.32C46.6061 75.856 46.0461 75.624 45.3821 75.624C44.7181 75.624 44.1581 75.856 43.7021 76.32C43.2461 76.776 43.0181 77.336 43.0181 78C43.0181 78.664 43.2461 79.228 43.7021 79.692ZM52.987 74.856C53.875 74.856 54.591 75.172 55.135 75.804C55.687 76.428 55.963 77.168 55.963 78.024C55.963 78.112 55.955 78.236 55.939 78.396H50.671C50.751 79.004 51.007 79.488 51.439 79.848C51.879 80.2 52.419 80.376 53.059 80.376C53.515 80.376 53.907 80.284 54.235 80.1C54.571 79.908 54.823 79.66 54.991 79.356L55.687 79.764C55.423 80.188 55.063 80.524 54.607 80.772C54.151 81.02 53.631 81.144 53.047 81.144C52.103 81.144 51.335 80.848 50.743 80.256C50.151 79.664 49.855 78.912 49.855 78C49.855 77.104 50.147 76.356 50.731 75.756C51.315 75.156 52.067 74.856 52.987 74.856ZM52.987 75.624C52.363 75.624 51.839 75.812 51.415 76.188C50.999 76.556 50.751 77.036 50.671 77.628H55.147C55.067 76.996 54.823 76.504 54.415 76.152C54.007 75.8 53.531 75.624 52.987 75.624Z" fill="white"/>
<rect x="94" y="74" width="1" height="8" fill="white"/>
<rect x="99" y="74" width="1" height="8" fill="white"/>
<rect x="104" y="74" width="1" height="8" fill="white"/>
<rect x="109" y="74" width="1" height="8" fill="white"/>
<rect x="114" y="74" width="1" height="8" fill="white"/>
<rect x="119" y="74" width="1" height="8" fill="white"/>
<rect x="124" y="74" width="1" height="8" fill="white"/>
<rect x="129" y="74" width="1" height="8" fill="white"/>
<rect x="134" y="74" width="1" height="8" fill="white"/>
<rect x="139" y="74" width="1" height="8" fill="white"/>
<rect x="144" y="74" width="1" height="8" fill="white"/>
<rect x="149" y="74" width="1" height="8" fill="white"/>
<rect x="154" y="74" width="1" height="8" fill="white"/>
<rect x="159" y="74" width="1" height="8" fill="white"/>
<rect x="164" y="74" width="1" height="8" fill="white"/>
<rect x="169" y="74" width="1" height="8" fill="white"/>
<rect x="174" y="74" width="1" height="8" fill="white"/>
<rect x="179" y="74" width="1" height="8" fill="white"/>
<rect x="184" y="74" width="1" height="8" fill="white"/>
<rect x="189" y="74" width="1" height="8" fill="white"/>
<rect x="194" y="74" width="1" height="8" fill="white"/>
<rect x="199" y="74" width="1" height="8" fill="white"/>
<rect x="204" y="74" width="1" height="8" fill="white"/>
<rect x="209" y="74" width="1" height="8" fill="white"/>
<rect x="214" y="74" width="1" height="8" fill="white"/>
<rect x="219" y="74" width="1" height="8" fill="white"/>
<rect x="224" y="74" width="1" height="8" fill="white"/>
<rect x="229" y="74" width="1" height="8" fill="white"/>
<rect x="234" y="74" width="1" height="8" fill="white"/>
<rect x="239" y="74" width="1" height="8" fill="white"/>
<rect x="244" y="74" width="1" height="8" fill="white"/>
<rect x="249" y="74" width="1" height="8" fill="white"/>
<rect x="254" y="74" width="1" height="8" fill="white"/>
<rect x="259" y="74" width="1" height="8" fill="white"/>
<rect x="264" y="74" width="1" height="8" fill="white"/>
<rect x="269" y="74" width="1" height="8" fill="white"/>
<rect x="274" y="74" width="1" height="8" fill="white"/>
<rect x="279" y="74" width="1" height="8" fill="white"/>
<rect x="284" y="74" width="1" height="8" fill="white"/>
<rect x="289" y="74" width="1" height="8" fill="white"/>
<rect x="294" y="72" width="1" height="12" fill="white"/>
<rect opacity="0.25" x="299" y="74" width="1" height="8" fill="white"/>
<rect opacity="0.25" x="304" y="74" width="1" height="8" fill="white"/>
<rect opacity="0.25" x="309" y="74" width="1" height="8" fill="white"/>
<path opacity="0.75" d="M10.12 117L8.152 113.64H5.8V117H4.96V108.6H8.32C9.016 108.6 9.608 108.848 10.096 109.344C10.592 109.832 10.84 110.424 10.84 111.12C10.84 111.688 10.668 112.196 10.324 112.644C9.988 113.084 9.556 113.38 9.028 113.532L11.08 117H10.12ZM5.8 109.392V112.848H8.32C8.784 112.848 9.18 112.68 9.508 112.344C9.836 112 10 111.592 10 111.12C10 110.64 9.836 110.232 9.508 109.896C9.18 109.56 8.784 109.392 8.32 109.392H5.8ZM14.6315 110.856C15.5195 110.856 16.2355 111.172 16.7795 111.804C17.3315 112.428 17.6075 113.168 17.6075 114.024C17.6075 114.112 17.5995 114.236 17.5835 114.396H12.3155C12.3955 115.004 12.6515 115.488 13.0835 115.848C13.5235 116.2 14.0635 116.376 14.7035 116.376C15.1595 116.376 15.5515 116.284 15.8795 116.1C16.2155 115.908 16.4675 115.66 16.6355 115.356L17.3315 115.764C17.0675 116.188 16.7075 116.524 16.2515 116.772C15.7955 117.02 15.2755 117.144 14.6915 117.144C13.7475 117.144 12.9795 116.848 12.3875 116.256C11.7955 115.664 11.4995 114.912 11.4995 114C11.4995 113.104 11.7915 112.356 12.3755 111.756C12.9595 111.156 13.7115 110.856 14.6315 110.856ZM14.6315 111.624C14.0075 111.624 13.4835 111.812 13.0595 112.188C12.6435 112.556 12.3955 113.036 12.3155 113.628H16.7915C16.7115 112.996 16.4675 112.504 16.0595 112.152C15.6515 111.8 15.1755 111.624 14.6315 111.624ZM19.257 112.572C19.257 112.844 19.377 113.06 19.617 113.22C19.857 113.38 20.149 113.504 20.493 113.592C20.837 113.68 21.181 113.78 21.525 113.892C21.869 113.996 22.161 114.176 22.401 114.432C22.641 114.68 22.761 115.008 22.761 115.416C22.761 115.928 22.557 116.344 22.149 116.664C21.749 116.984 21.229 117.144 20.589 117.144C20.013 117.144 19.521 117.016 19.113 116.76C18.713 116.504 18.433 116.172 18.273 115.764L18.945 115.368C19.057 115.68 19.257 115.928 19.545 116.112C19.841 116.288 20.189 116.376 20.589 116.376C20.981 116.376 21.309 116.3 21.573 116.148C21.837 115.988 21.969 115.744 21.969 115.416C21.969 115.144 21.849 114.928 21.609 114.768C21.369 114.608 21.077 114.484 20.733 114.396C20.389 114.308 20.045 114.212 19.701 114.108C19.357 113.996 19.065 113.816 18.825 113.568C18.585 113.312 18.465 112.98 18.465 112.572C18.465 112.084 18.657 111.676 19.041 111.348C19.433 111.02 19.925 110.856 20.517 110.856C21.005 110.856 21.433 110.968 21.801 111.192C22.169 111.408 22.441 111.704 22.617 112.08L21.957 112.464C21.725 111.904 21.245 111.624 20.517 111.624C20.173 111.624 19.877 111.708 19.629 111.876C19.381 112.036 19.257 112.268 19.257 112.572ZM24.8276 109.56C24.7156 109.672 24.5796 109.728 24.4196 109.728C24.2596 109.728 24.1236 109.672 24.0116 109.56C23.8996 109.448 23.8436 109.312 23.8436 109.152C23.8436 108.992 23.8996 108.856 24.0116 108.744C24.1236 108.632 24.2596 108.576 24.4196 108.576C24.5796 108.576 24.7156 108.632 24.8276 108.744C24.9396 108.856 24.9956 108.992 24.9956 109.152C24.9956 109.312 24.9396 109.448 24.8276 109.56ZM24.0236 117V111H24.8156V117H24.0236ZM27.1203 112.572C27.1203 112.844 27.2403 113.06 27.4803 113.22C27.7203 113.38 28.0123 113.504 28.3563 113.592C28.7003 113.68 29.0443 113.78 29.3883 113.892C29.7323 113.996 30.0243 114.176 30.2643 114.432C30.5043 114.68 30.6243 115.008 30.6243 115.416C30.6243 115.928 30.4203 116.344 30.0123 116.664C29.6123 116.984 29.0923 117.144 28.4523 117.144C27.8763 117.144 27.3843 117.016 26.9763 116.76C26.5763 116.504 26.2963 116.172 26.1363 115.764L26.8083 115.368C26.9203 115.68 27.1203 115.928 27.4083 116.112C27.7043 116.288 28.0523 116.376 28.4523 116.376C28.8443 116.376 29.1723 116.3 29.4363 116.148C29.7003 115.988 29.8323 115.744 29.8323 115.416C29.8323 115.144 29.7123 114.928 29.4723 114.768C29.2323 114.608 28.9403 114.484 28.5963 114.396C28.2523 114.308 27.9083 114.212 27.5643 114.108C27.2203 113.996 26.9283 113.816 26.6883 113.568C26.4483 113.312 26.3283 112.98 26.3283 112.572C26.3283 112.084 26.5203 111.676 26.9043 111.348C27.2963 111.02 27.7883 110.856 28.3803 110.856C28.8683 110.856 29.2963 110.968 29.6643 111.192C30.0323 111.408 30.3043 111.704 30.4803 112.08L29.8203 112.464C29.5883 111.904 29.1083 111.624 28.3803 111.624C28.0363 111.624 27.7403 111.708 27.4923 111.876C27.2443 112.036 27.1203 112.268 27.1203 112.572ZM34.8911 111.768H33.1631V115.404C33.1631 115.732 33.2271 115.968 33.3551 116.112C33.4831 116.248 33.6751 116.32 33.9311 116.328C34.1871 116.328 34.5071 116.32 34.8911 116.304V117C34.0511 117.128 33.4191 117.068 32.9951 116.82C32.5791 116.572 32.3711 116.1 32.3711 115.404V111.768H31.1111V111H32.3711V109.56L33.1631 109.32V111H34.8911V111.768ZM38.5478 109.116L37.7078 110.16H36.8078L38.0798 108.6H39.0158L40.2878 110.16H39.3878L38.5478 109.116ZM38.6198 110.856C39.5078 110.856 40.2238 111.172 40.7678 111.804C41.3198 112.428 41.5958 113.168 41.5958 114.024C41.5958 114.112 41.5878 114.236 41.5718 114.396H36.3038C36.3838 115.004 36.6398 115.488 37.0718 115.848C37.5118 116.2 38.0518 116.376 38.6918 116.376C39.1478 116.376 39.5398 116.284 39.8678 116.1C40.2038 115.908 40.4558 115.66 40.6238 115.356L41.3198 115.764C41.0558 116.188 40.6958 116.524 40.2398 116.772C39.7838 117.02 39.2638 117.144 38.6798 117.144C37.7358 117.144 36.9678 116.848 36.3758 116.256C35.7838 115.664 35.4878 114.912 35.4878 114C35.4878 113.104 35.7798 112.356 36.3638 111.756C36.9478 111.156 37.6998 110.856 38.6198 110.856ZM38.6198 111.624C37.9958 111.624 37.4718 111.812 37.0478 112.188C36.6318 112.556 36.3838 113.036 36.3038 113.628H40.7798C40.6998 112.996 40.4558 112.504 40.0478 112.152C39.6398 111.8 39.1638 111.624 38.6198 111.624ZM45.6636 110.856C46.3916 110.856 46.9636 111.08 47.3796 111.528C47.8036 111.968 48.0156 112.564 48.0156 113.316V117H47.2236V113.316C47.2236 112.78 47.0796 112.364 46.7916 112.068C46.5116 111.772 46.1116 111.624 45.5916 111.624C45.0156 111.624 44.5476 111.808 44.1876 112.176C43.8276 112.536 43.6476 113.096 43.6476 113.856V117H42.8556V111H43.6476V111.936C44.0956 111.216 44.7676 110.856 45.6636 110.856ZM52.343 117.144C51.439 117.144 50.687 116.844 50.087 116.244C49.487 115.636 49.187 114.888 49.187 114C49.187 113.112 49.487 112.368 50.087 111.768C50.687 111.16 51.439 110.856 52.343 110.856C52.935 110.856 53.467 111 53.939 111.288C54.411 111.568 54.755 111.948 54.971 112.428L54.323 112.8C54.163 112.44 53.903 112.156 53.543 111.948C53.191 111.732 52.791 111.624 52.343 111.624C51.679 111.624 51.119 111.856 50.663 112.32C50.207 112.776 49.979 113.336 49.979 114C49.979 114.664 50.207 115.228 50.663 115.692C51.119 116.148 51.679 116.376 52.343 116.376C52.791 116.376 53.191 116.272 53.543 116.064C53.895 115.848 54.171 115.56 54.371 115.2L55.031 115.584C54.783 116.064 54.419 116.444 53.939 116.724C53.459 117.004 52.927 117.144 52.343 117.144ZM56.9721 109.56C56.8601 109.672 56.7241 109.728 56.5641 109.728C56.4041 109.728 56.2681 109.672 56.1561 109.56C56.0441 109.448 55.9881 109.312 55.9881 109.152C55.9881 108.992 56.0441 108.856 56.1561 108.744C56.2681 108.632 56.4041 108.576 56.5641 108.576C56.7241 108.576 56.8601 108.632 56.9721 108.744C57.0841 108.856 57.1401 108.992 57.1401 109.152C57.1401 109.312 57.0841 109.448 56.9721 109.56ZM56.1681 117V111H56.9601V117H56.1681ZM63.8008 111H64.5928V117H63.8008V115.824C63.2488 116.704 62.4408 117.144 61.3768 117.144C60.5208 117.144 59.7888 116.84 59.1808 116.232C58.5808 115.624 58.2808 114.88 58.2808 114C58.2808 113.12 58.5808 112.376 59.1808 111.768C59.7888 111.16 60.5208 110.856 61.3768 110.856C62.4408 110.856 63.2488 111.296 63.8008 112.176V111ZM59.7568 115.692C60.2128 116.148 60.7728 116.376 61.4368 116.376C62.1008 116.376 62.6608 116.148 63.1168 115.692C63.5728 115.228 63.8008 114.664 63.8008 114C63.8008 113.336 63.5728 112.776 63.1168 112.32C62.6608 111.856 62.1008 111.624 61.4368 111.624C60.7728 111.624 60.2128 111.856 59.7568 112.32C59.3008 112.776 59.0728 113.336 59.0728 114C59.0728 114.664 59.3008 115.228 59.7568 115.692Z" fill="white"/>
<rect x="94" y="110" width="1" height="8" fill="white"/>
<rect x="99" y="110" width="1" height="8" fill="white"/>
<rect x="104" y="110" width="1" height="8" fill="white"/>
<rect x="109" y="110" width="1" height="8" fill="white"/>
<rect x="114" y="110" width="1" height="8" fill="white"/>
<rect x="119" y="110" width="1" height="8" fill="white"/>
<rect x="124" y="110" width="1" height="8" fill="white"/>
<rect x="129" y="110" width="1" height="8" fill="white"/>
<rect x="134" y="110" width="1" height="8" fill="white"/>
<rect x="139" y="110" width="1" height="8" fill="white"/>
<rect x="144" y="110" width="1" height="8" fill="white"/>
<rect x="149" y="110" width="1" height="8" fill="white"/>
<rect x="154" y="110" width="1" height="8" fill="white"/>
<rect x="159" y="110" width="1" height="8" fill="white"/>
<rect x="164" y="110" width="1" height="8" fill="white"/>
<rect x="169" y="110" width="1" height="8" fill="white"/>
<rect x="174" y="110" width="1" height="8" fill="white"/>
<rect x="179" y="110" width="1" height="8" fill="white"/>
<rect x="184" y="110" width="1" height="8" fill="white"/>
<rect x="189" y="110" width="1" height="8" fill="white"/>
<rect x="194" y="110" width="1" height="8" fill="white"/>
<rect x="199" y="110" width="1" height="8" fill="white"/>
<rect x="204" y="110" width="1" height="8" fill="white"/>
<rect x="209" y="110" width="1" height="8" fill="white"/>
<rect x="214" y="110" width="1" height="8" fill="white"/>
<rect x="219" y="110" width="1" height="8" fill="white"/>
<rect x="224" y="108" width="1" height="12" fill="white"/>
<rect opacity="0.25" x="229" y="110" width="1" height="8" fill="white"/>
<rect opacity="0.25" x="234" y="110" width="1" height="8" fill="white"/>
<rect opacity="0.25" x="239" y="110" width="1" height="8" fill="white"/>
<rect opacity="0.25" x="244" y="110" width="1" height="8" fill="white"/>
<rect opacity="0.25" x="249" y="110" width="1" height="8" fill="white"/>
<rect opacity="0.25" x="254" y="110" width="1" height="8" fill="white"/>
<rect opacity="0.25" x="259" y="110" width="1" height="8" fill="white"/>
<rect opacity="0.25" x="264" y="110" width="1" height="8" fill="white"/>
<rect opacity="0.25" x="269" y="110" width="1" height="8" fill="white"/>
<rect opacity="0.25" x="274" y="110" width="1" height="8" fill="white"/>
<rect opacity="0.25" x="279" y="110" width="1" height="8" fill="white"/>
<rect opacity="0.25" x="284" y="110" width="1" height="8" fill="white"/>
<rect opacity="0.25" x="289" y="110" width="1" height="8" fill="white"/>
<rect opacity="0.25" x="294" y="110" width="1" height="8" fill="white"/>
<rect opacity="0.25" x="299" y="110" width="1" height="8" fill="white"/>
<rect opacity="0.25" x="304" y="110" width="1" height="8" fill="white"/>
<rect opacity="0.25" x="309" y="110" width="1" height="8" fill="white"/>
<path opacity="0.75" d="M7.216 153L4.12 144.6H5.032L7.648 151.884L10.264 144.6H11.176L8.08 153H7.216ZM14.1979 146.856C15.0859 146.856 15.8019 147.172 16.3459 147.804C16.8979 148.428 17.1739 149.168 17.1739 150.024C17.1739 150.112 17.1659 150.236 17.1499 150.396H11.8819C11.9619 151.004 12.2179 151.488 12.6499 151.848C13.0899 152.2 13.6299 152.376 14.2699 152.376C14.7259 152.376 15.1179 152.284 15.4459 152.1C15.7819 151.908 16.0339 151.66 16.2019 151.356L16.8979 151.764C16.6339 152.188 16.2739 152.524 15.8179 152.772C15.3619 153.02 14.8419 153.144 14.2579 153.144C13.3139 153.144 12.5459 152.848 11.9539 152.256C11.3619 151.664 11.0659 150.912 11.0659 150C11.0659 149.104 11.3579 148.356 11.9419 147.756C12.5259 147.156 13.2779 146.856 14.1979 146.856ZM14.1979 147.624C13.5739 147.624 13.0499 147.812 12.6259 148.188C12.2099 148.556 11.9619 149.036 11.8819 149.628H16.3579C16.2779 148.996 16.0339 148.504 15.6259 148.152C15.2179 147.8 14.7419 147.624 14.1979 147.624ZM18.4338 153V144.24H19.2258V153H18.4338ZM25.9344 152.244C25.3264 152.844 24.5824 153.144 23.7024 153.144C22.8224 153.144 22.0744 152.844 21.4584 152.244C20.8504 151.636 20.5464 150.888 20.5464 150C20.5464 149.112 20.8504 148.368 21.4584 147.768C22.0744 147.16 22.8224 146.856 23.7024 146.856C24.5824 146.856 25.3264 147.16 25.9344 147.768C26.5504 148.368 26.8584 149.112 26.8584 150C26.8584 150.888 26.5504 151.636 25.9344 152.244ZM22.0224 151.692C22.4784 152.148 23.0384 152.376 23.7024 152.376C24.3664 152.376 24.9264 152.148 25.3824 151.692C25.8384 151.228 26.0664 150.664 26.0664 150C26.0664 149.336 25.8384 148.776 25.3824 148.32C24.9264 147.856 24.3664 147.624 23.7024 147.624C23.0384 147.624 22.4784 147.856 22.0224 148.32C21.5664 148.776 21.3384 149.336 21.3384 150C21.3384 150.664 21.5664 151.228 22.0224 151.692ZM30.9798 153.144C30.0758 153.144 29.3238 152.844 28.7238 152.244C28.1238 151.636 27.8238 150.888 27.8238 150C27.8238 149.112 28.1238 148.368 28.7238 147.768C29.3238 147.16 30.0758 146.856 30.9798 146.856C31.5718 146.856 32.1038 147 32.5758 147.288C33.0478 147.568 33.3918 147.948 33.6078 148.428L32.9598 148.8C32.7998 148.44 32.5398 148.156 32.1798 147.948C31.8278 147.732 31.4278 147.624 30.9798 147.624C30.3158 147.624 29.7558 147.856 29.2998 148.32C28.8438 148.776 28.6158 149.336 28.6158 150C28.6158 150.664 28.8438 151.228 29.2998 151.692C29.7558 152.148 30.3158 152.376 30.9798 152.376C31.4278 152.376 31.8278 152.272 32.1798 152.064C32.5318 151.848 32.8078 151.56 33.0078 151.2L33.6678 151.584C33.4198 152.064 33.0558 152.444 32.5758 152.724C32.0958 153.004 31.5638 153.144 30.9798 153.144ZM35.6088 145.56C35.4968 145.672 35.3608 145.728 35.2008 145.728C35.0408 145.728 34.9048 145.672 34.7928 145.56C34.6808 145.448 34.6248 145.312 34.6248 145.152C34.6248 144.992 34.6808 144.856 34.7928 144.744C34.9048 144.632 35.0408 144.576 35.2008 144.576C35.3608 144.576 35.4968 144.632 35.6088 144.744C35.7208 144.856 35.7768 144.992 35.7768 145.152C35.7768 145.312 35.7208 145.448 35.6088 145.56ZM34.8048 153V147H35.5968V153H34.8048ZM42.4375 144.6H43.2295V153H42.4375V151.824C41.8855 152.704 41.0775 153.144 40.0135 153.144C39.1575 153.144 38.4255 152.84 37.8175 152.232C37.2175 151.624 36.9175 150.88 36.9175 150C36.9175 149.12 37.2175 148.376 37.8175 147.768C38.4255 147.16 39.1575 146.856 40.0135 146.856C41.0775 146.856 41.8855 147.296 42.4375 148.176V144.6ZM38.3935 151.692C38.8495 152.148 39.4095 152.376 40.0735 152.376C40.7375 152.376 41.2975 152.148 41.7535 151.692C42.2095 151.228 42.4375 150.664 42.4375 150C42.4375 149.336 42.2095 148.776 41.7535 148.32C41.2975 147.856 40.7375 147.624 40.0735 147.624C39.4095 147.624 38.8495 147.856 38.3935 148.32C37.9375 148.776 37.7095 149.336 37.7095 150C37.7095 150.664 37.9375 151.228 38.3935 151.692ZM50.0664 147H50.8584V153H50.0664V151.824C49.5144 152.704 48.7064 153.144 47.6424 153.144C46.7864 153.144 46.0544 152.84 45.4464 152.232C44.8464 151.624 44.5464 150.88 44.5464 150C44.5464 149.12 44.8464 148.376 45.4464 147.768C46.0544 147.16 46.7864 146.856 47.6424 146.856C48.7064 146.856 49.5144 147.296 50.0664 148.176V147ZM46.0224 151.692C46.4784 152.148 47.0384 152.376 47.7024 152.376C48.3664 152.376 48.9264 152.148 49.3824 151.692C49.8384 151.228 50.0664 150.664 50.0664 150C50.0664 149.336 49.8384 148.776 49.3824 148.32C48.9264 147.856 48.3664 147.624 47.7024 147.624C47.0384 147.624 46.4784 147.856 46.0224 148.32C45.5664 148.776 45.3384 149.336 45.3384 150C45.3384 150.664 45.5664 151.228 46.0224 151.692ZM57.6953 144.6H58.4873V153H57.6953V151.824C57.1433 152.704 56.3353 153.144 55.2713 153.144C54.4153 153.144 53.6833 152.84 53.0753 152.232C52.4753 151.624 52.1753 150.88 52.1753 150C52.1753 149.12 52.4753 148.376 53.0753 147.768C53.6833 147.16 54.4153 146.856 55.2713 146.856C56.3353 146.856 57.1433 147.296 57.6953 148.176V144.6ZM53.6513 151.692C54.1073 152.148 54.6673 152.376 55.3313 152.376C55.9953 152.376 56.5553 152.148 57.0113 151.692C57.4673 151.228 57.6953 150.664 57.6953 150C57.6953 149.336 57.4673 148.776 57.0113 148.32C56.5553 147.856 55.9953 147.624 55.3313 147.624C54.6673 147.624 54.1073 147.856 53.6513 148.32C53.1953 148.776 52.9673 149.336 52.9673 150C52.9673 150.664 53.1953 151.228 53.6513 151.692ZM62.9362 146.856C63.8242 146.856 64.5402 147.172 65.0842 147.804C65.6362 148.428 65.9122 149.168 65.9122 150.024C65.9122 150.112 65.9042 150.236 65.8882 150.396H60.6202C60.7002 151.004 60.9562 151.488 61.3882 151.848C61.8282 152.2 62.3682 152.376 63.0082 152.376C63.4642 152.376 63.8562 152.284 64.1842 152.1C64.5202 151.908 64.7722 151.66 64.9402 151.356L65.6362 151.764C65.3722 152.188 65.0122 152.524 64.5562 152.772C64.1002 153.02 63.5802 153.144 62.9962 153.144C62.0522 153.144 61.2842 152.848 60.6922 152.256C60.1002 151.664 59.8042 150.912 59.8042 150C59.8042 149.104 60.0962 148.356 60.6802 147.756C61.2642 147.156 62.0162 146.856 62.9362 146.856ZM62.9362 147.624C62.3122 147.624 61.7882 147.812 61.3642 148.188C60.9482 148.556 60.7002 149.036 60.6202 149.628H65.0962C65.0162 148.996 64.7722 148.504 64.3642 148.152C63.9562 147.8 63.4802 147.624 62.9362 147.624Z" fill="white"/>
<rect x="94" y="146" width="1" height="8" fill="white"/>
<rect x="99" y="146" width="1" height="8" fill="white"/>
<rect x="104" y="146" width="1" height="8" fill="white"/>
<rect x="109" y="146" width="1" height="8" fill="white"/>
<rect x="114" y="146" width="1" height="8" fill="white"/>
<rect x="119" y="146" width="1" height="8" fill="white"/>
<rect x="124" y="146" width="1" height="8" fill="white"/>
<rect x="129" y="146" width="1" height="8" fill="white"/>
<rect x="134" y="146" width="1" height="8" fill="white"/>
<rect x="139" y="146" width="1" height="8" fill="white"/>
<rect x="144" y="146" width="1" height="8" fill="white"/>
<rect x="149" y="146" width="1" height="8" fill="white"/>
<rect x="154" y="146" width="1" height="8" fill="white"/>
<rect x="159" y="146" width="1" height="8" fill="white"/>
<rect x="164" y="146" width="1" height="8" fill="white"/>
<rect x="169" y="146" width="1" height="8" fill="white"/>
<rect x="174" y="146" width="1" height="8" fill="white"/>
<rect x="179" y="146" width="1" height="8" fill="white"/>
<rect x="184" y="146" width="1" height="8" fill="white"/>
<rect x="189" y="146" width="1" height="8" fill="white"/>
<rect x="194" y="146" width="1" height="8" fill="white"/>
<rect x="199" y="146" width="1" height="8" fill="white"/>
<rect x="204" y="146" width="1" height="8" fill="white"/>
<rect x="209" y="146" width="1" height="8" fill="white"/>
<rect x="214" y="146" width="1" height="8" fill="white"/>
<rect x="219" y="146" width="1" height="8" fill="white"/>
<rect x="224" y="146" width="1" height="8" fill="white"/>
<rect x="229" y="146" width="1" height="8" fill="white"/>
<rect x="234" y="146" width="1" height="8" fill="white"/>
<rect x="239" y="146" width="1" height="8" fill="white"/>
<rect x="244" y="146" width="1" height="8" fill="white"/>
<rect x="249" y="146" width="1" height="8" fill="white"/>
<rect x="254" y="146" width="1" height="8" fill="white"/>
<rect x="259" y="146" width="1" height="8" fill="white"/>
<rect x="264" y="144" width="1" height="12" fill="white"/>
<rect opacity="0.25" x="269" y="146" width="1" height="8" fill="white"/>
<rect opacity="0.25" x="274" y="146" width="1" height="8" fill="white"/>
<rect opacity="0.25" x="279" y="146" width="1" height="8" fill="white"/>
<rect opacity="0.25" x="284" y="146" width="1" height="8" fill="white"/>
<rect opacity="0.25" x="289" y="146" width="1" height="8" fill="white"/>
<rect opacity="0.25" x="294" y="146" width="1" height="8" fill="white"/>
<rect opacity="0.25" x="299" y="146" width="1" height="8" fill="white"/>
<rect opacity="0.25" x="304" y="146" width="1" height="8" fill="white"/>
<rect opacity="0.25" x="309" y="146" width="1" height="8" fill="white"/>
</g>
<defs>
<filter id="filter0_d" x="0" y="0" width="314" height="164" filterUnits="userSpaceOnUse" color-interpolation-filters="sRGB">
<feFlood flood-opacity="0" result="BackgroundImageFix"/>
<feColorMatrix in="SourceAlpha" type="matrix" values="0 0 0 0 0 0 0 0 0 0 0 0 0 0 0 0 0 0 127 0"/>
<feOffset dy="4"/>
<feGaussianBlur stdDeviation="2"/>
<feColorMatrix type="matrix" values="0 0 0 0 0 0 0 0 0 0 0 0 0 0 0 0 0 0 0.25 0"/>
<feBlend mode="normal" in2="BackgroundImageFix" result="effect1_dropShadow"/>
<feBlend mode="normal" in="SourceGraphic" in2="effect1_dropShadow" result="shape"/>
</filter>
</defs>
</svg>
